<svg version="1.1" id="Layer_1" xmlns="http://www.w3.org/2000/svg" x="0" y="0" viewBox="0 0 150 170.1" xml:space="preserve"><style>.st2{fill:#fff}.st4{display:none}.st5{display:inline;fill:#fff}</style><path fill="#00853e" d="M150 170.1l-75-17.2-75 17.2V0h150z"/><path class="st2" d="M143.5 6.3v155.3l-68.2-15.8-.3-.1-.3.1-68.2 15.8V6.3h137m1.5-1.5H5v158.7l70-16.2 70 16.2V4.8z" opacity=".75"/><path class="st2" d="M104.3 72.7l-3.6 9.8h5.5l1.3-3.8h5.4v27h-3.1l-2.2 6.1h15l2.3-6.1h-4.2v-27h6.3l-.1 3.8h3.8l3.6-9.9zm-60.4 0l-2.3 6.1h3.8v17.7c0 3.3-.6 5.1-2.2 6.7-1.2 1.3-3.4 2.1-5.6 2.1-2.6 0-5-.9-6.5-2.4s-2.2-3.9-2.2-7.4V72.8H17.8l-2.2 6.1h4.7v16.9c0 15.8 12.3 17.1 16.1 17.1 9.8 0 16.1-6.3 16.1-16.1V79h2.8l2.2-6.1H43.9v-.2z"/><path class="st2" d="M97.3 78.7v33.1h-4.6S71.2 89.2 69.8 87.6v18.1H74l-2.2 6.1H57.9l2.2-6.1h2.4v-27h-5.1l2.2-6.1h8.5s16.4 17.1 22.1 23.2V78.7h-4.1l2.2-6.1h14.2l-2.2 6.1h-3z"/><path d="M134.3 81.3c0 .7-.6 1.2-1.2 1.2-.7 0-1.2-.6-1.2-1.2 0-.7.6-1.2 1.2-1.2.6-.1 1.2.5 1.2 1.2zm-2.4 0c0 .6.5 1.1 1.1 1.1s1.1-.5 1.1-1.1-.5-1.1-1.1-1.1c-.6-.1-1.1.4-1.1 1.1zm.7-.8h.5c.3 0 .5.1.5.4 0 .2-.2.4-.4.4l.4.7h-.1l-.4-.7h-.4v.7h-.1v-1.5zm.1.7h.3c.2 0 .5 0 .5-.3 0-.2-.2-.3-.4-.3h-.4v.6h0z" fill="#fff" stroke="#fff" stroke-width=".054" stroke-miterlimit="10"/><g id="eagle_3_"><g class="st4"><path class="st5" d="M93.5 56c0-.1.1-.3.1-.7 0-.7-.2-1.5-1.1-2.2-1.2-1-3.9-3.6-4.5-4.1.1-.3.1-.9.1-1.8 0-2.1-.6-5.7-3.8-9.5-.4-.6-4-4.5-7.4-8.3-2.8-3.1-5.5-6.2-5.7-6.4-.4-.4-.4-.9-.4-1.1v-.4l-.6-1.5-1.9 4.1c0 .1-.1.4-.1.8 0 .3.1.7.2.9.2.3.6.8.8 1-.1.3-1.1 2.5-1.1 2.5s-.1.2-.1.6c0 .1 0 .2.1.4-2.4-2.1-5-4.6-8.2-7.5-.4-.4-.6-1-.6-1.5 0-.3.1-.6.1-.6v-.2l-.6-1.3-.3.6-2.2 4.9c-.1.3-.2.8-.2 1.1 0 .7.3 1.3.9 1.9-.2.3-1.2 2.6-1.2 2.6-.1.3-.2.7-.2 1 0 1.2 1 2.1 1.7 2.6-.2.4-1.1 2.5-1.1 2.5-.1.2-.2.4-.2.8 0 1.1 1.2 1.9 2 2.4l.2.1c.3.2 8.8 5.3 16.9 10.1h-8.5c-1.2 0-1.7-.3-1.7-.3l-.4-.1h-1.9l7.8 7.5c.7.7 1.5 1.1 3.6.6.7-.2 3.5-1.1 4.3-1.3.2.1 1.9.8 2 .9 1.9 2.6 4 4.1 5 4.8 0 .2-.1.3-.1.6 0 .6.2 1 .3 1l.6 1 .4-1c.3-.8 1.2-1.2 1.8-1.1.2 0 .2.6.2.8l-.1.7s.6-.3.9-.7c1.2-1.1.9-2.2.4-2.7-.4-.6-1.2-.7-2.1-.4 0-.1-.7-1.1-.8-1.6.3-.2 1.1-.7 1.2-.7.2 0 1 .2 1.2.2.1.1.2.4.2.4h.2c1.7.2 2 .3 2.1.4 0 .1-.1.3-.4.6s-.6.4-.6.4.3.1.7.2c.3 0 2 .1 2.9-1.1 0 0 .2-.3.2-.7.2-.7 0-1.4-1-2.2z"/><path class="st5" d="M94.2 58.2c-.8 1.2-2.6 1.1-2.6 1.1s.6-.3.6-.8c.1-.6-2.5-.8-2.5-.8l-.2-.3L88 57s-1.3.7-1.7.9c.2.3.9 1.8 1.1 2 .4-.1 1.6-.4 2 .2.8 1-.3 2.1-.4 2.2s-.3.2-.3.2.2-1.1-.3-1.2c-.7-.1-1.7.3-2.1 1.2l-.3.6-.2-.4s-.2-.4-.2-.9c0-.2 0-.4.1-.7-.8-.4-3.1-2.1-5.1-4.9-.1 0-2-.9-2.2-1-.6.2-3.7 1.1-4.4 1.3-2 .6-2.6.1-3.2-.4l-7.2-6.8h.9s.6.4 1.9.4h9.7c-8.3-5-17.7-10.5-18-10.7l-.2-.1c-.7-.3-1.8-1-1.8-2 0-.2 0-.3.1-.6 0 0 1.2-2.6 1.2-2.7-.6-.4-1.8-1.2-1.8-2.5 0-.2 0-.6.2-.8 0 0 1.3-2.7 1.3-2.8-.6-.6-.9-1.2-.9-1.9 0-.3.1-.7.2-1l2.2-4.8.3.7s-.1.2-.1.6c0 .4.1 1.1.7 1.7 0 0 22.3 20.4 22.3 20.5L68.8 31c-.9-.8-.4-1.6-.4-1.6l1.2-2.7s-.6-.7-.9-1.1-.1-1.3-.1-1.3l1.6-3.4.3.7s-.2.8.6 1.7c.3.6 12 13.7 13 14.8 4.9 5.8 3.5 11.2 3.5 11.2s3.2 3.1 4.7 4.4c1.5 1.2.8 2.7.8 2.7 1.7 1.1 1.1 1.8 1.1 1.8z"/></g><path class="st2" d="M83.6 45.8L59.4 23.2c-1.1-1.1-.7-2.6-.7-2.6l-2 4.4c-.6 1.3.3 2.2.9 2.7.6.5 19.4 15.7 19.4 15.7v.7L58.3 29.7c-.9-.7-.8-1.8-.8-1.8l-1.3 2.8c-.7 1.6 1 2.6 1.7 3 .7.4 19.3 13.4 19.3 13.4l.1.8s-18-12-18.7-12.4c-.8-.4-.8-1.7-.8-1.7l-1.3 2.8c-.6 1.1 1 1.9 1.7 2.4.4.2 10.5 6.3 18.8 11.2H66.1c-1.6 0-2.1-.4-2.1-.4l1.5 1.3c.2.2.9 1 1.9 1h4l.8.3-3.5.2c-.7 0-.9.1-1.8-.4l1.6 1.5c.4.3.8.8 1.6.7.8-.1 5.1-.8 5.1-.8l.7.3-4.6 1c-1 .2-1.8-.3-1.8-.3l1.5 1.5c.6.6 1.1.9 3 .4.8-.2 4.5-1.3 4.5-1.3l2.4 1c2.5 3.4 5.4 5.1 5.4 5.1-.6.7-.1 1.5-.1 1.5.4-1 1.6-1.6 2.5-1.5.8.1.6 1 .6 1 .4-.6.8-1.2.3-1.8-.7-.8-2.1-.1-2.1-.1L86 57.8l1.9-1.1c1-6.4-4.3-10.9-4.3-10.9z"/><path class="st2" d="M82.4 36.4c-.3-.3-11.6-13-11.6-13-1-1.1-.7-1.9-.6-2l-1.3 2.9c-.3.8.2 1.3.7 1.8.4.6 12.1 12.9 12.1 12.9v.7L70.5 28.5c-.9-.9-.7-1.6-.6-1.7l-1.2 2.7c-.2.8.6 1.3 1.2 2 .6.6 13 12.2 14 13.2 2.1 2 3.2 4.6 3.2 4.6 1.3-6.5-3.5-11.4-4.7-12.9zm9.5 20c-.1-.8-1-1.9-1-1.9s1.8 1.7 1.9 1.8c0 0 .6-1.2-.6-2.4-1.7-1.6-5-4.6-5-4.6.2.8 1.6 3.1.9 7.5l1.7.3.2.3s1.9.2 2.2.6c0 0 .7.4 0 1.1 0 0 1.1-.2 1.7-.8 0 0 .6-.4-.1-1.1l-1-.9c-.3-.2-.9.1-.9.1zm-3.3-8l-.2.1v.7h-.1v-.7h-.2v-.1h.5zm.2 0l.3.7.2-.7h.1v.8h-.1v-.6l-.2.7H89l-.2-.7v.6h-.1l.1-.8z"/></g><g class="st4"><path class="st2" d="M37 128.1v-12.9h8.8v2.8h-5.6v2.2H45v2.8h-4.8v2.3h5.6v2.8H37zm15.4.1c-2 0-3.6-.4-4.9-1.7l2-2c.7.7 1.8.9 2.9.9 1.2 0 1.8-.4 1.8-1.2 0-.3-.1-.6-.3-.8-.2-.2-.4-.3-.9-.3l-1.6-.2c-1.1-.2-2-.5-2.6-1.1s-.9-1.5-.9-2.6c0-2.4 1.8-4.1 4.7-4.1 1.8 0 3.2.4 4.3 1.5l-2 2c-.8-.8-1.9-.8-2.4-.8-1.1 0-1.6.6-1.6 1.2 0 .2.1.4.3.6s.4.3.9.4l1.6.2c1.2.2 2 .5 2.5 1.1.7.7 1 1.6 1 2.8.1 2.6-2.1 4.1-4.8 4.1zM64.9 118v10.1h-3.2V118h-3.2v-2.8H68v2.8h-3.1zm3.6 10.1v-3.3h3.3v3.3h-3.3zm11.8 0v-9.7l-2.8 2.4v-3.2l2.8-2.4h3v12.9h-3zm10.3.1c-2.4 0-4.3-1.3-4.3-4 0-1.6 1-2.4 1.5-2.8-.5-.4-1.3-1.2-1.3-2.6 0-2.4 2-3.8 4.2-3.8s4.2 1.4 4.2 3.8c0 1.4-.9 2.2-1.3 2.6.5.4 1.5 1.2 1.5 2.8-.2 2.7-2.2 4-4.5 4zm0-5.4c-.7 0-1.4.6-1.4 1.4s.6 1.4 1.4 1.4c.7 0 1.4-.6 1.4-1.4s-.7-1.4-1.4-1.4zm0-5.1c-.7 0-1.2.5-1.2 1.2s.5 1.2 1.2 1.2 1.2-.5 1.2-1.2c0-.6-.5-1.2-1.2-1.2zm13.1 5.3l-2.5 5.1h-3.3l2.6-5.1c-.3.1-.5.1-.7.1-1.6 0-3.4-1.3-3.4-3.9 0-2.7 2-4.1 4.3-4.1s4.3 1.4 4.3 4.1c-.1 1.3-.7 2.5-1.3 3.8zm-3.1-5.3c-.7 0-1.3.5-1.3 1.5s.6 1.5 1.3 1.5c.7 0 1.3-.5 1.3-1.5 0-.9-.6-1.5-1.3-1.5zm10.3 10.5c-2.1 0-4.2-1.4-4.2-4v-5.1c0-2.7 2-4 4.2-4 2.1 0 4.1 1.4 4.1 4v5.1c0 2.6-2 4-4.1 4zm1.2-9.1c0-.9-.5-1.3-1.2-1.3-.6 0-1.2.4-1.2 1.3v5.1c0 .9.5 1.3 1.2 1.3.6 0 1.2-.4 1.2-1.3v-5.1z"/></g></svg>