<svg version="1.1" id="Layer_1" xmlns="http://www.w3.org/2000/svg" x="0" y="0" viewBox="0 0 126 57" xml:space="preserve"><style>.st1{fill:#00853e}</style><g id="Layer_2_1_"><path class="st1" d="M47.4 45.8c-.4-.2-1.1.2-1.1.2-.2-1-1.3-2.5-1.3-2.5s2.3 2.1 2.4 2.3c0-.1.8-1.6-.7-3-2.2-2.1-6.4-5.9-6.4-5.9.3 1 2 4 1.1 9.7l2.2.4.3.4s2.5.3 2.9.7c0 0 .9.6-.1 1.4 0 0 1.4-.3 2.2-1.1 0 0 .7-.6-.1-1.5l-1.4-1.1"/><path class="st1" d="M35.7 32.4L4.4 3.3C2.9 1.9 3.5 0 3.5 0L1 5.6c-.7 1.8.3 2.9 1.1 3.5.7.6 24.9 20.2 24.9 20.2v.8L3 11.6c-1.2-.9-1-2.4-1-2.4L.3 12.8c-.8 2 1.2 3.3 2.1 3.9.8.6 24.7 17.3 24.7 17.3l.2 1S4.1 19.5 3.2 19c-1-.6-1-2.1-1-2.1L.5 20.5C-.2 22 1.8 23 2.7 23.6c.6.4 13.6 8.1 24.3 14.5H13.1c-2 0-2.7-.6-2.7-.6l1.9 1.7c.3.3 1.2 1.3 2.4 1.3h5.1l1 .4-4.5.3c-.9 0-1.1.1-2.3-.5l2 1.9c.6.5 1 .9 2 .9 1-.1 6.6-1 6.6-1l.9.4-5.9 1.3c-1.3.3-2.3-.4-2.3-.4l1.8 1.8c.8.7 1.5 1.2 3.9.5 1-.3 5.7-1.8 5.7-1.8l3.1 1.3c3.1 4.3 7 6.6 7 6.6-.7.9-.1 1.9-.1 1.9.6-1.3 2.1-2 3.2-1.8.9.1.7 1.3.7 1.2.6-.7 1.1-1.6.5-2.4-.7-.9-2.5-.1-2.5-.1l-1.8-3.2 2.4-1.4c1.2-8.3-5.5-14-5.5-14"/><path class="st1" d="M34 20.3c-.4-.4-14.9-16.7-14.9-16.7-1.3-1.4-.8-2.5-.8-2.6l-1.7 3.8c-.4 1 .3 1.7.8 2.3.6.6 15.8 16.5 15.8 16.5l-.1.9-14.4-14.4c-1.2-1.2-.8-2.1-.8-2.2l-1.5 3.5c-.3 1.1.8 1.8 1.5 2.5.8.8 16.9 15.8 18.2 17 2.8 2.6 4.2 5.9 4.2 5.9 1.6-8.2-4.7-14.6-6.3-16.5"/><path class="st1" d="M100.1 5.3l-2.7 7.5h4.1l1.1-2.9h4v20.6h-2.3l-1.7 4.6h11.5l1.7-4.6h-3.2V9.9h4.8v2.9h2.8l2.8-7.6-22.9.1M54 5.3l-1.7 4.6h2.9v13.5c0 2.5-.4 3.9-1.7 5.1-.9 1-2.6 1.6-4.2 1.6-2 0-3.8-.7-4.9-1.8-1.1-1.1-1.7-3-1.7-5.7V5.3h-8.4l-1.7 4.6h3.6v12.8c0 12.1 9.4 13 12.3 13 7.5 0 12.3-4.8 12.3-12.3V9.8h2.1l1.7-4.6-10.6.1"/><path class="st1" d="M94.8 9.9v25.2h-3.5S74.9 17.8 73.8 16.7v13.8H77l-1.7 4.7H64.7l1.7-4.7h1.8V9.9h-3.8l1.7-4.6h6.5S85.1 18.4 89.5 23V10h-3.2L88 5.3h10.8L97.1 10l-2.3-.1M124.5 5c-.9 0-1.5.7-1.5 1.6s.7 1.6 1.5 1.6 1.5-.7 1.5-1.6-.7-1.6-1.5-1.6zm0 2.9c-.7 0-1.2-.6-1.2-1.4 0-.7.6-1.3 1.2-1.3.7 0 1.2.6 1.2 1.3 0 .8-.5 1.4-1.2 1.4z"/><path class="st1" d="M124.8 6.6c.2-.1.3-.2.3-.4s-.1-.3-.2-.4-.3-.1-.5-.1h-.5v1.8h.3v-.8h.2c.2 0 .3.1.4.3s.1.4.1.5h.3s-.1-.2-.1-.4c-.1-.3-.2-.4-.3-.5zm-.4-.1h-.2v-.6h.2c.3 0 .4.1.4.3 0 .2-.2.3-.4.3zM61.3 48.9c-.9 0-1.8-.3-2.1-.8-.3-.4-.3-.8-.3-2.6v-1.3c0-.2-.3-.2-.4-.2h-.1l.1-.3h1.9l-.1.3c-.2 0-.5 0-.5.3v2.3c0 .7 0 1.8 1.4 1.8 1 0 1.5-.5 1.5-1.6v-2.6c0-.2-.4-.2-.4-.2l.1-.3h1.4l-.1.3h-.1c-.1 0-.3 0-.3.3v2.3c0 .3-.1 1.2-.5 1.7-.3.4-1 .6-1.5.6m7.8-.1c-.7-.8-1.2-1.2-1.5-1.6l-.5-.5-.5-.6c-.5-.6-.9-1-1.1-1.2v3.8h-1.2l.1-.3c.2 0 .4 0 .4-.3v-3.9c0-.2-.2-.2-.4-.2l.1-.3h.8l1.5 1.7s1.6 1.7 2 2.1v-3.8h1.3v.3c-.1 0-.5 0-.5.2 0 0-.1 2.1-.1 2.7v1.9h-.4m2.1-.4c.2 0 .4 0 .4-.2v-4.1c0-.2-.3-.2-.5-.2H71l.1-.3h1.7l-.1.3c-.2 0-.3 0-.3.2v4.1c0 .1.1.1.2.2h.4l-.1.3h-1.7v-.3m4.6.4s-.5-1.2-1.1-2.6l-1-2-.1-.1c-.1-.2-.3-.2-.4-.2h-.1l.1-.3h1l1.5 3.1c.2.6.3.8.4 1.1 0-.2.7-1.8.7-1.8s.7-1.5.8-1.8l.2-.6h1l.1.4c-.1 0-.3 0-.6.5-.2.3-.7 1.5-.7 1.5l-1.2 2.8h-.6m13.1.1c-.8 0-1.4-.1-2.2-.9-.9-1-1.9-2.1-1.9-2.2v2.9h-1.3l.1-.3c.2 0 .3 0 .4-.1v-4.2c0-.2-.3-.2-.4-.2l.1-.3h2.1c.5 0 1.4.2 1.4.9 0 .8-.7 1.2-1.4 1.4 2.1 2.2 2.6 2.5 3.5 2.5h.2c.4-.1 1.1-.4 1.1-1.1 0-.4 0-.9-1.1-.9-.9-.1-1.4-.5-1.4-1.2 0-.4.1-.8.4-1.1.4-.4.9-.6 1.5-.6.8 0 1.1.4 1.1.4l-.1.9h-.3l-.1-.4c0-.1-.4-.3-.9-.3-.6 0-.9.3-.9.8s.4.8 1.2.9c.9.1 1.3.5 1.3 1.2 0 1-1.2 1.9-2.4 1.9m-4.1-4.8v1.7c.9-.1 1.4-.4 1.4-1.1 0-.6-.6-.7-1-.7-.3 0-.3.1-.4.1m7.5 4.4c.2 0 .4 0 .4-.2v-4.1c0-.2-.2-.2-.4-.2h-.1l.1-.3H94l-.1.3c-.2 0-.4 0-.4.2v4.1c0 .1.1.1.1.2h.4l-.1.3h-1.7l.1-.3m8.5.3h-.9l.1-.3s.4 0 .4-.2v-1.4c0-.3-.2-.5-.5-1-.1-.2-.2-.3-.4-.5-.8-1.2-.9-1.2-1.4-1.2H97v4.1c0 .1.1.1.1.2h.4l-.1.3h-1.7l.1-.3h.2c.1 0 .3 0 .3-.2v-4.2H95c-.3 0-.4.4-.4.4l-.2-.1.3-.8h4c.8 0 .9.3 1.4 1 .1.1.2.3.3.5.2.3.3.5.4.7l.2.4c.1-.2.7-1.2 1.1-1.8l.4-.6c.1-.1.1-.2.1-.2h.9v.1c-.1 0-.4.2-.6.5-.1.1-.1.2-.2.3-.5.6-1.5 2-1.5 2.5v1.3c0 .1.1.1.1.2h.4l-.1.3h-.8m-18.9 0h-2.7l.1-.3s.4 0 .4-.4v-4c0-.2-.2-.2-.3-.2h-.1l.1-.3h2.5c.4 0 .6.1.6.1v.7l-.3.2c0-.3-.1-.5-.8-.5h-.8v1.7h1.8l-.2.6h-1.6v1.9h1.7v-.7l.4.3v.9h-.8m-31.8 7.9c-1.5 0-2.5-1-2.5-2.5 0-1.1.5-2 1.4-2.4.5-.2 1-.3 1.5-.3 1.5 0 2.4.9 2.4 2.3.2 1.6-1.1 2.9-2.8 2.9m.2-4.8c-.8 0-1.4.4-1.7 1-.1.3-.2.7-.2 1.1 0 .9.3 1.5.9 1.9.3.2.7.3 1.1.3 1.1 0 1.9-.9 1.9-2.2 0-.9-.3-1.5-1-1.8-.2-.2-.6-.3-1-.3m3.7 4.3c.2 0 .4-.1.4-.4v-4c0-.2-.3-.2-.4-.2h-.1l.1-.3h2.6c.4 0 .6.1.6.1v.7l-.3.2c0-.2-.1-.5-.8-.5h-.8v1.7h1.8l-.2.5h-1.6v2c0 .1.1.1.1.2h.4l-.1.3h-1.8l.1-.3m11 .3c-.7-.8-1.1-1.2-1.5-1.6l-.5-.5-.4-.4c-.6-.6-1-1.1-1.2-1.3v3.8h-1.2l.1-.3c.2 0 .4 0 .4-.3V52c0-.2-.2-.2-.6-.2H60l.1-.3h1l1.5 1.7s1.6 1.7 2 2.1v-3.8h1.2l-.1.3c-.1 0-.4 0-.4.2 0 0-.1 2.1-.1 2.7v1.9H65v-.1m12.6.5c-.2-.1-.5-.4-.8-.8-.1-.2-.3-.3-.4-.5-1-1.1-1.9-2.1-1.9-2.2v2.9h-1.3l.1-.3c.2 0 .3 0 .4-.1v-.1l.1-2.4c0-.6 0-1.1-.1-1.4v-.2c0-.2-.3-.2-.4-.2l.1-.3h2c.5 0 1.4.2 1.4.9 0 .8-.6 1.1-1.2 1.3-.1 0-.2.1-.2.1.1.1.7.6 1.2 1.2.5.5 1 1.1 1.5 1.5.3.3.4.4.7.6h-1.2m-2.8-5.2h-.3v1.7c.1 0 .5 0 .8-.2.4-.2.6-.5.6-.9-.1-.4-.4-.6-1.1-.6m-5.6 4.8c-1.5 0-2.5-1-2.5-2.5 0-1.2.5-2 1.4-2.5.5-.2 1-.3 1.5-.3 1.5 0 2.5.9 2.5 2.3.1 1.8-1.2 3-2.9 3m.2-4.8c-.8 0-1.4.4-1.7 1-.1.3-.2.7-.2 1.1 0 .9.3 1.5.9 1.9.3.2.7.3 1.1.3 1.1 0 1.9-.9 1.9-2.2 0-.8-.3-1.4-1-1.8-.3-.2-.6-.3-1-.3m9.6 4.4c.1 0 .3 0 .3-.2v-4.1H78c-.3 0-.4.4-.4.4l-.2-.1.3-.8h4.2l-.1.8h-.2s0-.2-.1-.3-.1-.1-.2-.1h-1.1V56c0 .1.1.1.2.2h.4l-.1.3h-1.6l-.1-.3m7.4 0c.2 0 .4 0 .4-.2v-1.9h-2.9V56c0 .1.1.1.2.2h.4l-.1.3h-1.7l.1-.3h.1c.1 0 .3 0 .3-.2l.1-2.4-.3-1.7c0-.2-.2-.2-.4-.2h-.1l.1-.3h1.7l-.1.3c-.2 0-.4 0-.4.2v1.6h3v-1.6c0-.2-.2-.2-.4-.2h-.1l.1-.3h1.7l-.1.3c-.2 0-.4 0-.4.2v.2c0 .3-.1.8-.1 1.4 0 .7 0 1.6.1 2.1v.4c0 .2.3.2.4.2h.1l-.1.3h-1.7l.1-.3m12.7.7s.3-.2.6-.5 1.4-1.6 1.8-2.2l.2-.2c-.1-.1-.1-.2-.2-.2-.1-.1-.2-.3-.3-.4-.1-.2-.3-.4-.4-.7-.6-.9-.7-1-1.2-1l.1-.3h1.1l1.2 1.8.2.2s.1-.1.1-.2c.2-.3.4-.6.7-.9.3-.3.5-.7.6-.7.1-.1.1-.2.1-.2h.9s-.3.2-.5.5l-.4.5c-.3.4-.8 1-1.1 1.4l-.1.1v.1c0 .1.1.1.1.1.2.3.9 1.4 1.3 1.9.1.1.1.2.1.2l.1-.1.9-1.9 1.2-2.8h.6s.3.7.9 2c.7 1.5 1 2 1.3 2.7.1.1.2.2.5.2l.1-1h.4l.1.4c0 .1.4.3.9.3.3 0 .6-.1.8-.3.1-.2.2-.3.2-.6 0-.5-.4-.8-1.3-.9-.9-.1-1.4-.5-1.4-1.2 0-.3.1-.7.3-.9.4-.5 1-.8 1.7-.8.2 0 .5 0 .7.1.3.1.4.2.4.3l-.1 1h-.4l-.1-.4c0-.1-.4-.3-.9-.3-.6 0-.9.3-1 .8 0 .6.4.9 1.3 1s1.4.5 1.4 1.2c0 .3-.1.7-.3.9-.4.5-1 .8-1.7.8-.2 0-.5 0-.7-.1h-.2v.1h-1.3l-.9-1.9h-2l-.2.4c-.2.4-.3.7-.4.9v.2c.1.1.3.1.4.1l-.1.3h-1.9c-.3-.4-.7-1.1-1-1.5l-.2-.3-.1-.1-.1.1-.6.7c-.5.6-1 1.3-1.1 1.4l-.1.2-1-.3m6.6-2.8h1.5l-.3-.7-.2-.6c-.1-.2-.2-.4-.2-.5-.1.3-.7 1.8-.8 1.8m-13.3 2.1c.1 0 .3 0 .3-.2v-4.1h-1.3c-.3 0-.4.4-.4.4l-.2-.1.3-.8h4.2l-.1.8H95s0-.2-.1-.3-.1-.1-.2-.1h-1.1v4.1c0 .1.1.1.2.2h.3-.1l-.1.3h-1.6l.1-.2"/><path class="st1" d="M98.8 56.6h-3l.1-.3s.1 0 .2-.1.2-.2.2-.3V52c0-.2-.3-.2-.4-.2h-.1l.1-.3h2.6c.4 0 .6.1.6.1v.7l-.3.2c0-.3-.1-.5-.8-.5h-.8v1.7h1.9l-.2.6h-1.7v1.9h1.6v-.7l.4.3v.9l-.4-.1m15.1-4.9c0-.2-.1-.2-.3-.2h-.3v.9h.1V52h.2l.2.4h.1l-.3-.4c.2-.1.3-.2.3-.3zm-.5-.2h.2c.1 0 .2 0 .2.2 0 .1-.1.2-.3.2h-.2v-.4h.1z"/><path class="st1" d="M113.5 51.2c-.4 0-.7.3-.7.8 0 .4.3.8.7.8s.7-.3.7-.8c.1-.5-.2-.8-.7-.8zm0 1.3c-.4 0-.6-.3-.6-.7s.3-.7.6-.7.6.3.6.7c.1.5-.2.7-.6.7z"/></g></svg>