<svg version="1.1" id="Layer_1" xmlns="http://www.w3.org/2000/svg" x="0" y="0" viewBox="0 0 182.6 118.5" xml:space="preserve"><style>.st0{fill:#00853e}</style><path class="st0" d="M135.6 0l-5.1 14.3h7.8l2-5.5h7.7v39h-4.4l-3.2 8.8h21.7l3.3-8.8h-6.1v-39h9.1l-.1 5.5h5.5L178.9 0zM48.3 0L45 8.8h5.5v25.6c0 4.7-.9 7.3-3.2 9.7-1.8 1.8-4.9 3-8 3-3.8 0-7.2-1.3-9.4-3.5-2.1-2.1-3.2-5.6-3.2-10.7V.1h-16L7.6 8.8h6.8v24.4c0 22.9 17.8 24.6 23.3 24.6 14.1 0 23.3-9.1 23.3-23.3V8.8h4.1L68.2 0H48.3z"/><path class="st0" d="M125.5 8.8v47.8h-6.7S87.7 23.9 85.6 21.7v26.1h6.1l-3.2 8.8h-20l3.2-8.8h3.4v-39h-7.3L71.1 0h12.3s23.7 24.8 32 33.5V8.8h-6l3.1-8.8H133l-3.2 8.8h-4.3zM35.9 95.7c-2.7 0-5.1-1-6-2.4-.8-1.3-.8-2.2-.8-7.2v-3.8c0-.5-.8-.5-1.2-.5h-.3l.4-1h.1c.4 0 2.1.1 2.8.1.7 0 2.6-.1 2.6-.1l-.4 1c-.5 0-1.3.1-1.3.9v6.6c0 1.9 0 5 4 5 2.9 0 4.3-1.4 4.3-4.6v-7.3c0-.5-1.1-.5-1.1-.5l.3-1c.2 0 1.2.1 1.9.1.9 0 2-.1 2-.1l-.3 1h-.2c-.4 0-1 .1-1 .8l-.1 6.6c0 1-.1 3.3-1.3 4.7-1 1.1-2.9 1.7-4.4 1.7m22.2-.3c-2-2.2-3.2-3.5-4.2-4.5-.5-.5-.9-1-1.3-1.4l-1.5-1.6c-1.4-1.6-2.5-2.8-3.1-3.4.1 1 0 5.1 0 5.1l.1 5.7-1.4-.1-1.9.1.4-.9c.5 0 1.2-.1 1.2-.7v-.6c0-.6.1-1.5.1-3.2v-7.4c0-.6-.7-.7-1-.7l.3-1c.2 0 .6.1 1 .1.5 0 1.1-.1 1.1-.1 4.2 4.7 4.2 4.7 4.2 4.8 0 0 4.5 4.8 5.6 6-.1-1.8 0-8.5 0-8.5l-.1-2.2h.1c.3 0 1 .1 1.6.1.7 0 1.9-.1 1.9-.1l-.3 1c-.3 0-1.4 0-1.4.6 0 0-.1 5.9-.1 7.5 0 1.7.1 4.2.1 5.4h-1.4zm5.8-1h.2c.3 0 .9-.1.9-.6V82.5c0-.6-.8-.7-1.3-.7h-.3l.3-1h.1c.3 0 1.3.1 2.4.1 1.2 0 2.4-.1 2.4-.1l-.4 1c-.4 0-.9.1-.9.7v11.4c0 .2.1.4.4.5s.6.1.8.1h.2l-.3.9c-.2 0-1.1-.1-2.3-.1-1.3 0-2.6.1-2.6.1h-.1l.5-1zm13 1s-1.5-3.5-3.2-7.3c-1-2.3-2.2-4.6-2.7-5.5l-.2-.3c-.3-.5-.8-.6-1.1-.6h-.2l.3-1c.1 0 .7.1 1.4.1.8 0 1.5-.1 1.5-.1l4.1 8.7c.7 1.6.9 2.2 1.1 3.2.1-.5 2.1-5 2.1-5.1 0 0 2-4.2 2.4-5.1.4-.8.6-1.7.6-1.7.2 0 .9.1 1.4.1.6 0 1.4-.1 1.4-.1l-.4 1c-.4 0-1 .1-1.6 1.4-.4.9-2 4.3-2 4.3l-3.5 7.9-1.4.1zm36.8.2c-2.2 0-4-.1-6.1-2.4-2.7-2.9-5.4-6-5.5-6.1.1.6.1 5.1.1 6.3 0 1.2.1 1.9.1 1.9h-.1c-.2 0-.7-.1-1.4-.1-.9 0-2.4.1-2.4.1l.4-1c.6 0 .9-.1 1.1-.3.1-.1.1-.2.1-.3V82.3c0-.6-.8-.7-1.2-.7l.2-.9h.1c.3 0 1.5.1 2.4.1h1c.4 0 .9-.1 2.1-.1 1.4 0 4 .5 4 2.6 0 2.2-2.1 3.5-4 4 5.9 6 7.2 7 10 7 .2 0 .4 0 .6-.1 1.2-.2 3-1.2 3-3 0-1.1.1-2.5-3.1-2.7-2.5-.2-3.9-1.3-3.9-3.4 0-1.1.4-2.2 1.2-3.1 1-1.1 2.5-1.7 4.2-1.7 2.1 0 3 1 3 1l-.2 2.6-1-.1-.2-1.1c0-.3-1-.8-2.5-.8-1.6 0-2.6.9-2.6 2.4s1 2.2 3.4 2.4c2.5.2 3.8 1.4 3.8 3.4 0 3.1-3.2 5.5-6.6 5.5m-11.5-13.5v4.8c2.5-.1 3.8-1.2 3.8-3 0-1.6-1.6-1.8-2.9-1.8h-.9M6.9 117.6c-4.2 0-6.9-2.8-6.9-7.1 0-3.2 1.4-5.6 4.1-6.9 1.3-.6 2.8-1 4.2-1 4.2 0 6.9 2.5 6.9 6.5-.1 5-3.5 8.5-8.3 8.5m.5-13.4c-2.2 0-4.1 1.1-4.8 2.8-.4.8-.6 1.9-.6 3 0 2.6.8 4.2 2.7 5.3.9.6 2 .9 3 .9 3.2 0 5.3-2.5 5.3-6.3 0-2.4-.9-4.1-2.7-5-.8-.5-1.8-.7-2.9-.7m115.7-9.7h.2c.3 0 .9-.1.9-.6V82.5c0-.6-.7-.7-1.1-.7h-.3l.3-1c.2 0 1.1.1 2.2.1 1.2 0 2.7-.1 2.7-.1l-.4 1c-.5 0-1.2.1-1.2.7V94c0 .2.1.4.4.5s.6.1.8.1h.2l-.3.9c-.2 0-1.1-.1-2.3-.1-1.3 0-2.6.1-2.6.1h-.1l.6-1zm23.9.8l-2.4.1.3-.9s1.2-.1 1.2-.6v-4.1c0-.7-.6-1.5-1.5-2.7-.3-.4-.6-.9-1-1.4-2.3-3.4-2.6-3.5-3.8-3.5-1.3 0-2.9 0-3 .1v11.6c0 .2.1.4.4.5.2.1.6.1.8.1h.3l-.3 1c-.2 0-1.1-.1-2.3-.1-1.3 0-2.6.1-2.6.1l.4-1h.2c.4 0 .9-.1.9-.6V82.2H131c-.8 0-1.2 1.1-1.2 1.2l-.6-.4.8-2.1 5.6.1 5.8-.1c2.1 0 2.6.9 3.8 3 .2.4.5.8.8 1.3.5.8.9 1.4 1.2 2l.6 1c.2-.6 2-3.2 3.1-5 .6-.9 1-1.6 1.1-1.7l.3-.6h.1c.1 0 .5.1.9.1.5 0 1.8-.1 1.8-.1h.1l-.1.2c-.2.1-1.1.5-1.6 1.3-.1.2-.4.5-.6.9-1.4 1.8-4.2 5.7-4.2 7V94c0 .2.1.4.4.5.2.1.5.1.7.1h.3l-.4 1-2.7-.3zm-129.2 21c.6 0 1.3-.1 1.3-1v-11.1c0-.5-.7-.5-1.2-.5h-.3l.4-.9c.2 0 .8.1 2.2.1 1.6 0 4.9-.1 4.9-.1 1.2 0 1.6.3 1.6.3s-.1.8-.1 1.5v.5l-.9.5c-.1-.7-.3-1.4-2.3-1.4h-2.2s-.1.4-.1 1.1v3.7h5.1l-.6 1.4h-4.5v5.5c0 .2.1.4.4.5.2.1.5.1.7.1h.3l-.4.9c-.2 0-.9-.1-2.2-.1-1.4 0-2.8.1-2.8.1H17l.8-1.1zm76-20.9c-1.7 0-3.8-.1-5-.1-.5 0-1 0-1.4.1h-1.2l.4-.9c.1 0 1.1 0 1.1-1v-1.4c0-1.3.1-3.3.1-5.1 0-1.5 0-2.9-.1-3.8v-.8c0-.5-.6-.5-.9-.5h-.3l.4-.9c.2 0 1.1.1 1.9.1 1.6 0 4.9-.1 4.9-.1 1.3 0 1.6.3 1.6.3s-.1.8-.1 1.4v.5s-.8.5-.9.5c-.1-.7-.3-1.4-2.3-1.4h-2.2s-.1.4-.1 1.1v3.7h5.2l-.7 1.5h-4.4v2.9c0 1.2 0 2 .1 2.5h.4c.5 0 1.5.1 2 .1.8 0 1.8 0 2.4-.1l.1-1.8 1.2.9v1.7c0 .6.1.8.1.8l-.1-.2h-2.2zm-45.2 21.8c-2-2.2-3.2-3.5-4.1-4.5-.5-.5-.9-1-1.3-1.4L42 110c-1.6-1.7-2.8-3.1-3.4-3.7.1 1 0 5.1 0 5.1v5.7h-1.3c-.9 0-1.9.1-1.9.1l.4-.9c.5 0 1.2-.1 1.2-.7v-11.2c0-.5-.5-.7-1.6-.7h-.3l.4-.9h.1c.3 0 1.3.1 1.7.1.5 0 1.1-.1 1.1-.1l4.2 4.7s4.4 4.8 5.6 6V105l-.1-2.2h.1c.3 0 1 .1 1.6.1.7 0 1.6-.1 1.6-.1l-.3 1c-.2 0-1.1.1-1.1.6 0 0-.1 5.9-.1 7.5 0 1.7.1 4.2.1 5.4l-1.4-.1zm35.4 1.3c-.6-.3-1.4-1.2-2.3-2.3-.4-.4-.8-.9-1.2-1.4-2.7-3-5.4-6-5.5-6.1.1.6.1 5.1.1 6.3 0 1.2.1 1.9.1 1.9h-.1c-.2 0-.7-.1-1.4-.1-.9 0-2.4.1-2.4.1l.4-1c.6 0 .9-.1 1.1-.3.1-.1.1-.2.1-.3l.2-6.8c0-1.8-.1-3.1-.2-3.9v-.7c0-.6-.8-.7-1.2-.7l.2-1h.1c.3 0 1.5.1 2.5.1h1c.4 0 .9-.1 2.1-.1 1.4 0 4 .5 4 2.6 0 2.2-1.7 3.2-3.3 3.8-.2.1-.6.2-.6.2.4.2 1.8 1.7 3.5 3.4 1.4 1.4 2.9 3 4.1 4.2.7.7 1.1 1 2 1.7l.1.1-3.4.3zm-7.8-14.7c-.8 0-1 .1-1 .1v4.8c.4 0 1.4 0 2.2-.4 1.1-.5 1.6-1.3 1.6-2.6s-.8-1.9-2.8-1.9m-15.6 13.7c-4.2 0-7-2.8-7-7.1 0-3.3 1.4-5.7 4.1-7 1.3-.6 2.8-1 4.2-1 4.3 0 7 2.5 7 6.6 0 4.9-3.5 8.5-8.3 8.5m.5-13.5c-2.1 0-4 1.1-4.8 2.8-.4.8-.6 1.9-.6 3 0 2.5.8 4.2 2.7 5.3.9.5 1.9.8 3 .8 3.1 0 5.3-2.5 5.3-6.2 0-2.4-.9-4-2.7-5-.8-.4-1.8-.7-2.9-.7m27.1 12.2c.4 0 .8-.1.8-.6l.1-6.8-.1-4.8h-3.6c-.8 0-1.2 1.1-1.2 1.2l-.6-.4.8-2.1 5.6.1 6.3-.1-.3 2.3h-.6s0-.5-.3-.9c-.2-.2-.4-.3-.7-.3-1.3 0-3 0-3.1.1v.6c0 .9-.1 2.5-.1 4.2 0 2.1 0 4.4.1 5.7v1.1c0 .2.2.4.4.5.3.1.6.1.8.1h.2l-.3.9c-.2 0-1.1-.1-2.3-.1-1.3 0-2.2.1-2.2.1h-.1l.4-.8zm20.6 0h.2c.3 0 .9-.1.9-.6v-5.4h-4.3c-2.8 0-4.1.1-4.1.1v5.3c0 .2.1.4.4.5s.6.1.8.1h.2l-.3 1c-.2 0-1.1-.1-2.3-.1-1.3 0-2.6.1-2.6.1l.4-1h.2c.3 0 .9-.1.9-.6l.2-6.9-.2-4.5c0-.6-.7-.7-1.1-.7h-.2l.3-1c.2 0 1.1.1 2.2.1 1.2 0 2.7-.1 2.7-.1l-.4 1c-.5 0-1.1.1-1.1.7v4.5h4.1c1.7 0 4.3-.1 4.3-.1v-4.5c0-.6-.7-.7-1.1-.7h-.3l.3-1c.2 0 1.1.1 2.2.1 1.2 0 2.7-.1 2.7-.1l-.4 1c-.6 0-1.2.1-1.2.7v.6c-.1.8-.2 2.3-.2 3.9 0 2.1.1 4.4.2 5.8v1.2c0 .5.8.5 1.2.5h.2l-.3 1c-.2 0-1.1-.1-2.3-.1-1.3 0-2.6.1-2.6.1h-.1l.5-.9zm35.9 2.2s.8-.7 1.5-1.4c.8-.8 3.8-4.5 5.1-6.2l.5-.6c-.2-.3-.4-.5-.4-.6-.3-.4-.5-.8-.8-1.2-.3-.5-.7-1.1-1.2-1.9-1.8-2.6-2.1-2.8-3.3-2.8l.3-.9 1.5.1c.4 0 1.6-.1 1.6-.1s2.2 3.4 3.3 5l.5.7c0-.1.1-.3.3-.5.5-.7 1.3-1.6 1.9-2.5.8-1 1.5-1.9 1.6-2.1.2-.4.2-.6.2-.6h2.7c0 .1-.9.5-1.5 1.3l-1 1.3c-.9 1.2-2.1 2.9-3 4l-.3.3c-.1.1 0 .2.1.3.1.1.2.3.3.3.6.9 2.7 3.9 3.7 5.3.2.3.3.5.4.5.1 0 .1 0 .2-.2l2.5-5.5 3.5-7.9h1.6c0 .1.7 2 2.4 5.7 1.9 4.3 2.7 5.7 3.7 7.5.1.2.6.7 1.3.7l.2-2.8 1 .1.2 1.2c0 .3 1.1.9 2.6.9.9 0 1.7-.3 2.1-.8.4-.4.6-1 .6-1.6 0-1.5-1.1-2.3-3.6-2.5s-3.9-1.5-3.9-3.5c0-.9.3-1.9.9-2.7 1-1.4 2.7-2.1 4.7-2.1.7 0 1.3.1 1.9.3.8.3 1.2.7 1.2.7l-.2 2.7-1-.1-.2-1.2c0-.3-1.1-.9-2.5-.9-1.6 0-2.6.9-2.7 2.2 0 1.7 1.1 2.5 3.5 2.7 2.5.2 3.9 1.5 3.9 3.5 0 .9-.3 1.8-.9 2.7-1 1.3-2.7 2.1-4.7 2.1-.7 0-1.3-.1-1.9-.3l-.7-.1-.1.2c-.2 0-1.5-.1-2.2-.1s-1.4.1-1.4.1l-2.5-5.4h-5.6l-.6 1.3c-.5 1-1 2.1-1.1 2.4-.1.2-.1.4 0 .5.2.3.9.4 1.3.4l-.2.9h-.1c-.4 0-2.6-.1-3.3-.1-1 0-2 .1-2 .1-.8-1.2-2-3-2.9-4.3l-.7-.9c-.1-.1-.1-.2-.2-.3l-.4.3-1.6 2c-1.3 1.6-2.9 3.7-3 3.8-.2.4-.4.5-.4.5l-2.7.1zm18.6-8.1h1.9c1.1 0 2.2-.1 2.2-.1l-.8-1.9-.7-1.6c-.3-.6-.5-1.1-.6-1.5-.3 1-2 5-2 5.1-.1 0-.1 0 0 0m-37.5 6c.4 0 .8-.1.8-.6l.1-6.8-.1-4.9H123c-.8 0-1.2 1.1-1.2 1.2l-.6-.4.8-2.1 5.6.1 6.3-.1-.2 2.3h-.6s0-.5-.3-.9c-.2-.2-.4-.3-.7-.3-1.3 0-3 0-3.1.1v.6c0 .9-.1 2.5-.1 4.2 0 2.1 0 4.4.1 5.7v1.1c0 .2.1.4.4.5.2.1.5.1.8.1h.2l-.3 1c-.2 0-1.1-.1-2.3-.1-1.3 0-2.2.1-2.2.1h-.1l.3-.8z"/><path class="st0" d="M143.7 117.3h-1.6c-1.4 0-3.1-.1-4.2-.1-.9 0-2.6.1-2.6.1l.4-.9s.3 0 .6-.1c.4-.2.5-.5.5-.9V114c0-1.3.1-3.2.1-5.1 0-1.5 0-2.9-.1-3.8v-.8c0-.5-.7-.5-1.2-.5h-.3l.4-.9h.1c.3 0 1.4.1 2.2.1 1.6 0 4.9-.1 4.9-.1 1.3 0 1.6.3 1.6.3v1.9s-.8.5-.9.5c-.1-.7-.3-1.4-2.3-1.4h-2.2s-.1.4-.1 1.1v3.7h5.6l-.7 1.5h-4.8v2.8c0 1.2 0 2 .1 2.5h.3c.5 0 1.5.1 2.1.1.8 0 1.3 0 1.9-.1l.1-1.8 1.2.9v1.7c0 .6.1.8.1.8v.1h-.1l-1.1-.2zM179.6 8.6c1.5 0 2.6 1.2 2.6 2.7S181 14 179.6 14s-2.6-1.2-2.6-2.7 1.1-2.7 2.6-2.7m0-.3c-1.7 0-3 1.3-3 3s1.3 3 3 3 3-1.3 3-3-1.3-3-3-3z"/><path class="st0" d="M178.6 9.4h1.4c.2 0 .3.1.5.1l.3.3c.1.1.1.3.1.5 0 .3-.1.5-.2.6-.2.2-.4.3-.6.3l1 1.6h-.5l-1-1.6h-.5V13h-.4V9.4zm.5 1.6h.8c.1 0 .2 0 .3-.1.1 0 .2-.1.3-.2.1-.1.1-.2.1-.3 0-.1 0-.2-.1-.3l-.2-.2c-.1 0-.2-.1-.3-.1h-.9V11z"/></svg>