<svg xmlns="http://www.w3.org/2000/svg" viewBox="0 0 100 33.7"><path fill="#FFF" d="M74.7 0l-3 8.3h4.6l1.1-3.2h4.5v22.8h-2.5L77.5 33h12.7l1.9-5.1h-3.6V5.1h5.3v3.2H97l3-8.3zM23.8 0l-1.9 5.1h3.2V20c0 2.7-.5 4.3-1.8 5.6-1.1 1.1-2.8 1.7-4.7 1.7-2.2 0-4.2-.7-5.5-2-1.3-1.2-1.9-3.3-1.9-6.3V-.1L1.9 0 0 5.2h4v14.2c0 13.3 10.4 14.4 13.6 14.4 8.2 0 13.6-5.3 13.6-13.6v-15h2.4L35.4 0H23.8z"/><path fill="#FFF" d="M68.8 5.1V33h-3.9S46.8 13.9 45.6 12.6v15.3h3.6l-1.9 5.2H35.6l1.9-5.2h2V5.2h-4.3L37 0h7.2s13.9 14.5 18.7 19.5V5.1h-3.5L61.2 0h12l-1.9 5.2-2.5-.1z"/><path fill="#FFF" stroke="#FFF" stroke-width=".054" stroke-miterlimit="10" d="M100 7.2c0 .6-.5 1.1-1.1 1.1-.6 0-1.1-.5-1.1-1.1 0-.6.5-1.1 1.1-1.1.6-.1 1.1.4 1.1 1.1zm-2.2 0c0 .6.4 1 1 1s1-.5 1-1c0-.6-.4-1-1-1-.5-.1-1 .4-1 1zm.6-.7h.6c.3 0 .4.1.4.4 0 .2-.2.3-.3.4l.4.6h-.1l-.4-.6h-.4v.6h-.1V6.5zm.2.6h.3c.2 0 .4 0 .4-.3 0-.2-.2-.3-.3-.3h-.4v.6z"/></svg>