<?xml version="1.0" standalone="no"?>
<!DOCTYPE svg PUBLIC "-//W3C//DTD SVG 20010904//EN"
 "http://www.w3.org/TR/2001/REC-SVG-20010904/DTD/svg10.dtd">
<svg version="1.0" xmlns="http://www.w3.org/2000/svg"
 width="192.000000pt" height="192.000000pt" viewBox="0 0 192.000000 192.000000"
 preserveAspectRatio="xMidYMid meet">
<metadata>
Created by potrace 1.11, written by Peter Selinger 2001-2013
</metadata>
<g transform="translate(0.000000,192.000000) scale(0.100000,-0.100000)"
fill="#000000" stroke="none">
<path d="M0 960 l0 -960 960 0 960 0 0 960 0 960 -960 0 -960 0 0 -960z m157
520 c-10 -85 -26 -95 -27 -17 0 56 3 67 16 67 14 0 16 -8 11 -50z m83 23 c0
-62 -49 -190 -94 -248 -15 -19 -15 -18 -16 17 0 20 11 60 25 90 14 29 30 79
36 111 9 45 16 57 30 57 14 0 19 -7 19 -27z m72 22 c2 -3 2 -24 -2 -47 -4 -29
-10 -42 -20 -40 -10 2 -11 0 -2 -11 13 -16 11 -25 -25 -105 -14 -32 -28 -50
-34 -46 -7 4 -9 0 -5 -12 8 -25 -31 -71 -66 -80 -38 -8 -36 3 12 77 47 72 77
148 86 218 6 44 10 51 29 51 12 0 24 -2 27 -5z m158 -45 c0 -36 4 -52 15 -56
26 -10 45 16 45 62 0 34 4 44 16 44 14 0 16 -9 12 -56 -5 -62 -16 -74 -65 -74
-40 0 -53 21 -53 84 0 34 4 46 15 46 11 0 15 -12 15 -50z m179 8 l31 -42 0 42
c0 31 4 42 15 42 12 0 15 -14 15 -65 0 -79 -15 -85 -60 -23 l-30 41 0 -41 c0
-31 -4 -42 -15 -42 -12 0 -15 14 -15 65 0 79 14 84 59 23z m121 -23 c0 -51 -3
-65 -15 -65 -12 0 -15 14 -15 65 0 51 3 65 15 65 12 0 15 -14 15 -65z m76 19
l18 -46 17 43 c9 24 24 45 33 47 17 4 17 4 -31 -115 -10 -26 -33 -12 -52 31
-31 72 -34 86 -18 86 9 0 23 -20 33 -46z m204 37 c0 -6 -14 -11 -32 -13 -43
-4 -48 -26 -6 -30 42 -4 43 -22 1 -26 -47 -5 -44 -32 2 -32 19 0 35 -4 35 -10
0 -5 -22 -10 -50 -10 l-50 0 0 65 0 65 50 0 c28 0 50 -4 50 -9z m128 -3 c7 -7
12 -21 12 -33 0 -12 -5 -26 -12 -33 -9 -9 -9 -15 0 -24 16 -16 15 -28 -3 -28
-8 0 -19 9 -25 20 -6 11 -17 20 -25 20 -8 0 -15 -9 -15 -20 0 -11 -7 -20 -15
-20 -12 0 -15 14 -15 65 l0 65 43 0 c24 0 48 -5 55 -12z m130 -6 c3 -9 -4 -12
-23 -10 -40 4 -42 -17 -3 -28 37 -11 49 -43 24 -63 -19 -16 -78 -10 -84 7 -3
10 4 12 32 7 47 -9 48 10 1 29 -37 16 -46 41 -23 64 16 16 70 11 76 -6z m72
-47 c0 -51 -3 -65 -15 -65 -12 0 -15 14 -15 65 0 51 3 65 15 65 12 0 15 -14
15 -65z m132 50 c-1 -5 -10 -10 -20 -10 -14 0 -18 -10 -20 -52 -2 -29 -7 -53
-12 -53 -5 0 -10 24 -12 53 -2 43 -6 51 -20 49 -11 -2 -18 3 -18 13 0 13 10
15 53 13 28 -2 51 -7 49 -13z m62 -10 l17 -25 23 27 c32 37 44 23 17 -20 -11
-19 -21 -46 -21 -61 0 -16 -5 -26 -15 -26 -9 0 -15 9 -15 24 0 13 -11 40 -25
60 -29 43 -30 46 -11 46 7 0 21 -11 30 -25z m-1266 -186 c-10 -7 -10 -9 0 -9
8 0 11 -19 10 -65 l-2 -65 -53 0 c-29 0 -53 3 -53 6 0 19 36 64 48 59 9 -3 12
0 9 9 -3 8 6 45 21 83 l27 68 3 -39 c2 -24 -2 -42 -10 -47z m682 -35 c16 -37
30 -68 30 -70 0 -11 -29 -2 -34 11 -7 20 -56 19 -71 -1 -6 -9 -17 -15 -23 -13
-18 6 44 138 65 139 2 0 16 -30 33 -66z m461 56 c5 0 9 -7 9 -15 0 -11 -8 -13
-30 -8 -42 8 -39 -13 5 -31 71 -30 23 -98 -49 -70 -9 3 -16 13 -16 21 0 10 5
13 18 8 28 -12 45 -11 49 3 3 6 -2 12 -10 12 -8 0 -25 8 -37 18 -37 30 -8 79
38 66 8 -2 18 -4 23 -4z m-981 -49 c0 -48 1 -50 32 -53 55 -5 46 -28 -11 -28
l-51 0 0 65 c0 51 3 65 15 65 11 0 15 -12 15 -49z m120 -16 c0 -51 -3 -65 -15
-65 -12 0 -15 14 -15 65 0 51 3 65 15 65 12 0 15 -14 15 -65z m130 50 c6 -8 9
-23 5 -34 -3 -10 -1 -22 5 -26 32 -20 -10 -55 -66 -55 l-44 0 0 65 0 65 44 0
c26 0 48 -6 56 -15z m134 9 c19 -7 22 -60 4 -67 -10 -3 -10 -9 0 -26 15 -26
15 -31 -1 -31 -7 0 -18 9 -25 20 -7 11 -19 20 -27 20 -8 0 -15 -9 -15 -20 0
-11 -7 -20 -15 -20 -12 0 -15 14 -15 65 l0 65 39 0 c22 0 46 -3 55 -6z m284
-6 c16 -16 15 -43 -3 -58 -12 -10 -12 -15 2 -36 14 -22 14 -24 -1 -24 -9 0
-21 9 -28 20 -7 11 -18 20 -24 20 -7 0 -14 -9 -17 -20 -3 -11 -10 -20 -16 -20
-7 0 -11 25 -11 65 l0 65 43 0 c24 0 48 -5 55 -12z m72 -53 c0 -51 -3 -65 -15
-65 -12 0 -15 14 -15 65 0 51 3 65 15 65 12 0 15 -14 15 -65z m130 55 c0 -5
-16 -10 -35 -10 -46 0 -49 -27 -2 -32 17 -2 32 -7 32 -13 0 -5 -15 -11 -32
-13 -44 -4 -42 -22 2 -22 24 0 35 -5 35 -15 0 -11 -12 -15 -50 -15 l-50 0 0
65 0 65 50 0 c28 0 50 -4 50 -10z m-1037 -555 c3 -211 9 -234 62 -260 68 -31
144 -10 164 46 6 18 11 96 11 175 l0 144 -25 0 c-29 0 -29 0 -13 51 l11 39
104 0 c104 0 104 0 97 -22 -17 -57 -25 -68 -44 -68 -19 0 -20 -6 -20 -157 0
-145 -2 -162 -24 -208 -44 -95 -111 -130 -239 -124 -64 4 -82 9 -118 34 -26
18 -53 50 -68 79 -24 46 -26 62 -29 213 l-4 163 -29 0 c-33 0 -35 7 -14 56
l14 35 81 -3 80 -3 3 -190z m728 35 c84 -88 155 -160 159 -160 3 0 4 51 3 112
l-1 113 -26 3 c-30 4 -30 3 -14 53 l11 39 108 0 108 0 -16 -45 c-12 -37 -19
-45 -39 -45 l-24 0 0 -240 0 -240 -35 0 c-37 0 -47 9 -313 290 l-52 55 0 -127
0 -128 31 0 c27 0 30 -3 23 -22 -22 -72 -14 -68 -128 -68 l-104 0 17 45 c10
30 22 45 33 45 17 0 18 16 18 195 l0 195 -35 0 c-39 0 -41 6 -21 55 15 35 15
35 80 35 l64 0 153 -160z m809 153 c0 -4 -12 -38 -26 -76 -24 -62 -28 -68 -53
-65 -20 2 -27 9 -29 31 -3 25 -7 27 -49 27 -37 0 -44 -3 -39 -16 3 -9 6 -96 6
-195 l0 -179 25 0 c29 0 29 0 13 -51 l-11 -39 -115 0 c-105 0 -114 1 -107 18
4 9 12 29 17 45 7 19 17 27 34 27 l24 0 0 195 0 195 -39 0 c-34 0 -40 -4 -50
-30 -9 -27 -14 -30 -50 -30 -23 0 -41 3 -41 8 0 4 9 32 20 62 12 30 23 61 25
68 3 9 57 12 225 12 121 0 220 -3 220 -7z m28 -111 c4 -28 -24 -40 -45 -19
-14 13 -14 19 -3 32 18 22 44 15 48 -13z"/>
<path d="M1110 1485 c0 -12 7 -15 25 -13 14 2 26 8 26 13 0 6 -12 11 -26 13
-18 2 -25 -1 -25 -13z"/>
<path d="M940 1285 c0 -8 7 -15 15 -15 9 0 12 6 9 15 -4 8 -10 15 -15 15 -5 0
-9 -7 -9 -15z"/>
<path d="M650 1306 c0 -11 9 -16 26 -16 31 0 28 23 -4 28 -15 2 -22 -2 -22
-12z"/>
<path d="M657 1263 c-15 -14 -6 -23 23 -23 32 0 40 14 14 24 -20 8 -29 8 -37
-1z"/>
<path d="M790 1301 c0 -16 6 -21 26 -21 33 0 30 33 -4 38 -17 3 -22 -2 -22
-17z"/>
<path d="M1070 1300 c0 -16 5 -21 23 -18 12 2 22 10 22 18 0 8 -10 16 -22 18
-18 3 -23 -2 -23 -18z"/>
</g>
</svg>
