<svg version="1" xmlns="http://www.w3.org/2000/svg" width="800" height="800" viewBox="0 0 600 600"><path d="M114 178.9v45.9l3 .4c1.6.3 3.3.2 3.8-.1.6-.5.9-87.7.3-91.4 0-.4-1.7-.7-3.6-.7H114v45.9zm55.9-40.9c-.9.6-1.2 3.3-1.1 9.7.3 10.1-.9 13.8-4.7 15.1-3.3 1.2-8.4-.7-9.5-3.3-.3-.9-.6-6.1-.7-11.6l-.1-9.9h-5.7l.2 11.3c.3 13 1.5 15.9 7.4 18.3 3.6 1.6 9.9 1.2 13.5-.7 3.7-2 5.1-6.9 5.3-18.1.1-9.3-.1-10.7-1.6-11.1-.9-.3-2.3-.1-3 .3zm13.2.4c-.5.6-.9 7.5-.9 15.3.1 14.1.1 14.1 2.5 14.6 1.3.2 2.5.2 2.7-.2.2-.3.3-5 .2-10.4 0-5.3.2-9.7.5-9.7.4 0 2.6 2.6 5 5.7 9 12.2 11.8 15.1 13.9 14.6 1.9-.5 2-1.4 2-15.3 0-13.8-.1-14.8-2-15.3-3.1-.8-3.7 1.2-3.6 11 .1 5.1.1 9.3 0 9.3s-3.6-4.4-7.8-9.9c-7.3-9.6-10.5-12.1-12.5-9.7zm37.2-.6c-1.3.2-2.3.6-2.4 1-.4 4.4-.1 28.4.5 28.9.3.4 1.5.7 2.6.8 1.4.1 2-.5 2.1-1.9.3-5.2 0-28.8-.3-29-.1-.1-1.3 0-2.5.2zm34.5-.1c-1.1.3-3.1 4.2-5.9 11.4-2.3 6-4.3 10.9-4.4 10.9-.2 0-2.2-5-4.5-11-4.2-10.9-4.3-11-7.6-11h-3.3l2 4.7c1.2 2.7 2.7 6.1 3.4 7.8.7 1.6 2.7 6.4 4.4 10.5 2.7 6.5 3.5 7.6 5.5 7.6 2.2 0 3.1-1.5 8.5-14.6 3.4-8.1 6.1-14.9 6.1-15.2 0-.9-2.3-1.5-4.2-1.1zm12.5.1c-2.3.3-2.3.5-2.3 15.3 0 11.2.3 14.9 1.3 15 9.7.6 21 .1 21.7-1.1 1.9-3.1 0-4-8.6-4H271v-7.9h6.3c8.9.1 8.7.1 8.7-2.5 0-2.3-.3-2.4-5.7-2.4-9.8-.1-9.3.1-9.3-3.7V143h8.5c8.4 0 8.5 0 8.5-2.5 0-1.7-.6-2.5-1.7-2.6-10.9-.3-17.2-.3-19-.1zm29.4 0c-1.5.3-1.7 2.2-1.7 15.2 0 11.4.3 14.9 1.3 15.3 2.6 1 4.2-1.1 4.2-5.5 0-4.2 0-4.3 3.8-4.6 2-.2 3.7.1 3.7.6s1.1 2.2 2.5 3.8c1.4 1.6 2.5 3.3 2.5 3.7 0 1.1 4.2 2.5 6.2 1.9 1.5-.4 1.2-1.2-2.3-6-3.7-5.2-3.8-5.7-2-6.3 2.8-1.1 5.1-4.9 5.1-8.7 0-4-4.6-9.2-8.2-9.3-1.3 0-4.8-.1-7.9-.2-3.1-.1-6.3-.1-7.2.1zm16.1 6.4c.7.7 1.2 2.4 1.2 4 0 2.3-.6 2.9-3.8 3.8-2 .7-5.1 1-6.7.8-2.8-.3-3-.6-3-5.1l-.1-4.7h5.6c3.1 0 6.1.5 6.8 1.2zm17.9-5.4c-4.2 2.6-5.6 8.8-2.8 12.3.9 1.1 4.5 3 8.1 4.2 5.2 1.7 6.6 2.7 6.8 4.4.6 4.2-6.2 5.2-11.5 1.7-2.4-1.5-2.7-1.5-4.5.4l-2 2 2.5 1.6c8.2 5.4 19.7 3.5 21.2-3.5 1.4-6.4-2.4-10.2-12.2-12.3-4-.9-5.4-4.3-2.7-6.3 2.3-1.7 3.6-1.6 8.1.2 2 .8 3.7 1.4 3.7 1.3.1-.2.7-1.1 1.4-2 1.1-1.4 1-1.9-1.3-3.4-3.6-2.3-11.4-2.6-14.8-.6zm25.9-1.1c-.7.8-.8 29.8-.1 30.5.3.3 1.6.3 2.8.1 2.2-.4 2.2-.7 2.2-15 0-14-.1-14.6-2.2-15.4-1.1-.4-2.4-.5-2.7-.2zm11.4 2.5c0 2.7.2 2.8 4.9 2.8h4.8v12.1c0 12.3.7 14.5 4 13.2 1.5-.6 1.4-.2 1.6-14.3l.2-10.5 4.8-.3c4.2-.3 4.7-.5 4.7-2.8 0-1.3-.3-2.4-.7-2.5-.5 0-6.1-.1-12.6-.2l-11.7-.2v2.7zm47.7 3.4c-2.3 3.5-4.5 6.4-4.8 6.4-.3 0-2.3-2.7-4.3-6-3.4-5.5-4-6-7.2-6h-3.5l6.1 9c5.7 8.4 6 9.3 6 14.9 0 6 .9 7.4 4.1 6.2 1.1-.4 1.6-2.2 1.8-6.6.2-5.4.8-6.8 5.7-14.2 3-4.6 5.4-8.5 5.4-8.7 0-.2-1.2-.6-2.6-.9-2.2-.4-3.1.3-6.7 5.9zm-266.8 44.6c0 1.3 0 8.1-.1 15.3v13l10.5.2c9.7.1 10.6-.1 11-1.9.7-2.5-1-3.1-9.2-3.2l-6.6-.1-.1-10.5c-.3-15.9-.1-15-2.9-15-1.9 0-2.5.5-2.6 2.2zm28-.4c-.1 2.1-.1 22.7 0 26.4.1 2.3.6 2.8 2.6 2.8 2.8 0 2.6 1.5 2.7-17.7l.1-12.8-2.7-.2c-1.8-.1-2.6.3-2.7 1.5zm14.1 13.7V217l8.3-.1c4.5-.1 9.7-.6 11.5-1.1 6.2-1.9 7.7-10.9 2.2-13.8l-2-1.1 2.1-2.2c2.4-2.6 2-7.1-1.1-10.2-1.7-1.7-3.6-2-11.5-2.2l-9.5-.3v15.5zm16-9.5c2.3 1.2 2.6 4.2.6 5.9-.8.7-3.6 1.1-6.3.9-5-.3-5.3-.9-4.4-6.6.2-1.3 7.8-1.4 10.1-.2zm2.8 13.4c1.6 1 1.5 3.1-.2 4.9-1 .9-3.4 1.4-7.2 1.3l-5.7-.1-.2-3.3c-.1-2.5.3-3.6 1.8-4.1 2.1-.8 9.5 0 11.5 1.3zm13.2-3.9V217h2.5c1.4 0 2.6-.5 2.6-1 .1-.6.3-2.4.4-4 .1-1.7.3-3.6.4-4.4.1-1 1.2-1.4 3.1-1.4 2.4.1 3.6 1.1 6.5 5.3 3.1 4.5 4.1 5.2 7.1 5.3 1.9.1 3.4 0 3.4-.1 0-.2-1.8-2.8-4-5.7l-4-5.4 2.3-1.3c5.5-2.8 6-12.5.9-15.9-2-1.3-5.2-1.9-11.9-2.1l-9.3-.3v15.5zm17.4-8.6c1.9 1.6 2.1 5.5.4 6.9-1.5 1.2-9.9 1.9-11.4.9-.8-.5-1.1-5.5-.5-8.8.2-1.1 10-.2 11.5 1zm22.6-1.7c-1.2 2.9-3.3 7.6-4.6 10.3-1.2 2.8-3.2 7.4-4.3 10.3L252 217h2.9c2.4 0 3.1-.6 4.4-3.8l1.5-3.9 6.4.3c3.5.1 6.6.2 7 .3.4.1 1.4 1.7 2.2 3.6 1.2 2.7 2.1 3.5 4 3.5 1.5 0 2.6-.5 2.6-1.1 0-.6-2.3-6.4-5.1-12.8-2.7-6.4-5.5-12.8-6.2-14.4-.9-2-1.9-2.7-3.8-2.7-2.2 0-3 .8-4.9 5.2zm7 7c1.1 2.4 2 4.8 2 5.3 0 1.2-7.9 1.3-8.1.2-.2-1.1 3.2-9.7 3.7-9.7.3 0 1.4 1.9 2.4 4.2zm17.9-10.9c-.1 1.6-.1 25.7 0 27.9.1 1.2.9 1.8 2.6 1.8 2.2 0 2.5-.4 2.6-4 .2-6.4.3-6.5 2.9-6.8 3.2-.3 3.9.3 7.9 6 2.6 3.9 3.7 4.8 6.1 4.8 1.7 0 3-.3 3-.6 0-.4-1.6-2.9-3.6-5.6-3.3-4.7-3.4-5.1-1.7-6.4 1-.7 2.1-1.4 2.5-1.4.4 0 1.3-1.8 1.9-3.9 1.4-4.7.1-8.8-3.4-11.1-3-1.9-20.7-2.5-20.8-.7zm17.5 5.6c.9.8 1.6 2.2 1.6 3.2 0 3.2-2.8 4.9-8.4 4.9h-5.2l-.1-4.3c0-2.3.3-4.5.9-4.8 1.6-1 9.6-.3 11.2 1zm14.9 8.7v15.3l2.6-.2 2.6-.2v-30l-2.6-.1-2.6-.1v15.3zm14.4-14.8c-.3.6-.1 27.6.2 29.4 0 .4 5.1.6 11.3.5 9.9-.2 11.1-.4 11.4-2 .3-2.5-1.7-3.1-10.3-3H340V204h7.4c6.5 0 7.4-.2 7.9-1.9.3-1.1.2-2.2-.1-2.5-.3-.3-3.8-.6-7.9-.6H340v-7.8l8.1.1c8.1.1 10.4-.9 9.2-3.8-.5-1.3-22-1.9-22.6-.7zm33.2.7c-2.7 1.5-3.7 3.1-4.5 7.3-.7 3.4 4.1 7.6 10.9 9.6 4.9 1.4 5.7 2 5.7 4 0 4-6.3 4.9-11.5 1.7-3-1.8-3.1-1.8-4.7.4-1.6 2.1-1.6 2.3 2.2 4.4 6.7 3.8 16.6 2.5 18.9-2.6 2.9-6.4.2-10.6-8.3-13.1-6.6-2-8.8-4.1-6.7-6.6 1.7-2 5.7-2 9.5-.1 2.6 1.4 3 1.4 4.2-.2 1.9-2.5 1.8-2.7-2.1-4.6-4.3-2.1-10.1-2.1-13.6-.2zm-255.6 68.2c-.3 1-1.9 5.2-3.5 9.3-1.5 4.1-2.8 7.8-2.8 8.3 0 .5 2.4.8 5.3.7 10.7-.3 9.5-4.4 9.6 31.4.1 35 .8 41.7 6.1 52.1 8 15.7 23.8 24.8 44.5 25.4 24.2.8 43.4-11.8 50.5-32.9 2.5-7.6 2.9-13.9 3-49.7v-26.2l4.6-.3 4.6-.3 3.4-9.5c1.9-5.2 3.4-9.6 3.4-9.8 0-.1-10.1-.2-22.5-.2s-22.5.2-22.5.4-1.6 4.7-3.5 10.1l-3.5 9.6 5.3-.2c2.9-.1 5.8 0 6.3.3 1.4.9 1 62.2-.4 67.3-2.7 9.5-8.8 14.8-18.9 16.6-11.1 2-23.6-2.9-28-10.9-4-7.1-4.3-10.5-4.3-52.5l-.1-40.7h-18c-16.2 0-18 .2-18.6 1.7zm132.2 5.5c-1.4 4-3.1 8.3-3.6 9.6-.5 1.3-.9 2.5-.9 2.7 0 .3 3.6.5 8 .5h8l.1 2.7c.4 17.6 0 82.6-.6 83.1-.3.4-2 .7-3.7.7-3 0-3.2.3-6.4 9-1.9 4.9-3.4 9.5-3.4 10 0 1.1 43.4 1.5 44.3.5.7-.8 6.7-17.5 6.7-18.6 0-.6-2.7-1-6.5-.9-7.3.1-6.7.9-6.7-9 0-2.8.1-14.8.1-26.7l.1-21.7 7.9 8.2c4.3 4.5 9.4 9.8 11.2 11.8 1.9 2 9.9 10.5 17.9 18.9 8 8.4 16.2 17.1 18.4 19.4 2.1 2.2 7.1 7.5 11.2 11.7l7.3 7.6 6.4-.2c3.5-.1 6.8-.5 7.3-.8.6-.3.9-22.3.9-53.1V274l2.5-.1c7.8-.3 7.2.2 10.6-8.9 1.8-4.7 3.3-9.1 3.3-9.8.1-.9-5.1-1.2-22.7-1.2h-22.8l-3.6 10-3.5 10h13.4v54.3l-7.6-8c-12.8-13.5-36.9-38.8-50.5-52.9L274.7 254h-27.5l-2.7 7.2z"/><path d="M390.1 256.2C386 267 380 284.3 380 285.1c0 .6 3.4.9 8.7.7l8.7-.3 2-5.8c2.1-5.6 2.2-5.7 6.1-5.8 6.8-.2 10.6-.1 11.8.4.9.3 1.2 11.3 1.2 43.3v42.8l-4.9.1h-4.9l-3.3 9c-1.8 5-3.3 9.4-3.3 10-.1.8 34.8 1.2 46.9.6 1-.1 2.7-3.3 4.8-9.4 1.8-5 3.2-9.4 3.2-9.7 0-.3-2.8-.6-6.2-.5h-6.3l-.3-43.5-.2-43.5 8.4.1c11.2.2 11.6.4 11.5 5.6-.2 7.2-.5 6.9 6.4 6.6l6.2-.3 2.6-7.5c1.5-4.1 4.1-11.2 5.7-15.8l3.1-8.2H391l-.9 2.2zm94.9 18.1c-3.8 1.9-4.1 8-.5 10.3 5.4 3.5 11.9-2 9-7.7-2.1-3.9-4.4-4.7-8.5-2.6zm6.2 1.4c2.2 2 2.3 5.1.1 7.5-2 2.2-4.1 2.3-6.5.1-2.5-2.2-2.3-5.9.4-7.7 2.8-2 3.7-2 6 .1z"/><path d="M487 275.9c-1.6.6-2.3 7.1-.8 7.1.4 0 .8-.7.8-1.7 0-1.5.2-1.5 1.8 0 1.6 1.4 1.7 1.3 1.9-1.8.2-3.5-1.1-4.7-3.7-3.6zm3 2.1c0 .5-.7 1-1.5 1s-1.5-.5-1.5-1c0-.6.7-1 1.5-1s1.5.4 1.5 1zM148.7 419.8c-.3.6-.2 45.1.2 47.7.1.7 6 1 16.4 1h16.2l.3-5.5.3-5.5h-10.3c-5.7 0-10.5-.3-10.9-.7-.3-.4-.3-2.4-.1-4.3l.4-3.5H179v-11l-8.7.2-8.8.3-.3-4.2-.3-4.2 8.8.1c13.4 0 12.3.5 12.3-5.6v-5.3l-16.5-.2c-9 0-16.6.3-16.8.7zm50.7.7c-1.7.8-4.3 2.8-5.8 4.5-2.5 3.1-2.8 4.2-2.8 9.5s.3 6.4 2.7 9.3c2.4 2.9 7.6 4.8 15 5.7 1.5.1 3.4.9 4.2 1.8 2.1 2.1.2 5.3-3.6 6.2-3.3.7-9.8-.3-10.7-1.6-1.1-1.8-3.6-.8-6.9 2.8-4.1 4.4-3.6 5.3 4.1 8.3 6.6 2.4 16.4 2.2 21.9-.6 5.4-2.7 8.8-9.2 8.1-15.3-1.1-8.9-4.8-11.6-18.7-13.5-1.9-.2-4.9-2.5-4.9-3.7 0-3.4 8.2-5.1 13.4-2.8 2.2 1.1 2.8.8 6.1-2.7l3.6-3.8-2.3-1.8c-4.9-3.8-17.2-5-23.4-2.3zm30.8 4.2l.3 5.7 5.8-.2 5.7-.1v38.4l5.8-.1c3.1-.1 5.9-.2 6.2-.3.3 0 .5-8.5.5-18.8v-18.8l4-.1c2.2-.1 4.9-.2 6.1-.3 1.5-.1 2-.7 1.8-2.4-.1-1.2-.3-3.7-.3-5.5l-.1-3.2h-36.1l.3 5.7zm78-1.8c-2.7 2.2-5.4 4.6-5.8 5.2-1 1.7-1.1 11.9-.1 11.9.4 0 2.8-1.9 5.2-4.1 3.7-3.4 4.5-3.8 4.6-2.3 0 1.1.1 8.6 0 16.9 0 8.2.2 15.7.5 16.6.3 1.2 1.7 1.5 5.7 1.5l5.2-.2v-48.9l-5.1-.3c-4.6-.3-5.5.1-10.2 3.7zm35-2.2c-7.4 3.6-10.1 13.5-5.4 20 1.8 2.6 2 3.3.9 4-4.1 2.4-5 11.7-1.7 17.1 2.8 4.6 9.7 7.6 16 6.9 9.3-1 13.7-5.1 14.6-13.6.3-3.9 0-5.4-2.1-8.5l-2.5-3.7 2-2.7c2.5-3.4 2.8-9.7.7-13.8-3.3-6.4-15.1-9.4-22.5-5.7zm11.3 10.7c2.1 3.1.5 6.6-2.8 6.6-4.5 0-6.4-5-2.9-7.6 2.5-2 4-1.7 5.7 1zm1.3 21.5c.5 3-1.5 5.1-4.8 5.1-5.1 0-6-8.1-1-9.3 2.3-.6 5.5 1.7 5.8 4.2zm23.8-31.3c-4.3 2.9-6.6 7.5-6.6 13.1 0 7.1 5.3 14 11.3 14.7 1.5.1 2.9.5 3.2.8.3.3-.8 3.1-2.5 6.2s-3.7 7.1-4.5 8.9l-1.4 3.3h6.2l6.2-.1 6.8-13.9c7.9-16.1 8.8-20.8 5.5-27.6-3.9-7.9-16.4-10.7-24.2-5.4zm12.7 8.8c2.1 1.6 2.3 6.9.3 8.6-2.2 1.7-5.9.8-7.2-1.8-1.5-3.1-.7-6.1 2-7.2 2.8-1.1 2.8-1.1 4.9.4zm29.9-10.6c-3.3 1-8.1 6-9 9.5-.4 1.7-.7 9.1-.7 16.4.2 14.5.7 16.1 6.9 20.7 3.9 3 14.1 2.8 18.3-.2 5.3-3.8 6.3-7.4 6.3-23 0-12.8-.2-14.2-2.3-17.3-3.8-5.8-11.8-8.3-19.5-6.1zm8.3 10.6c1.7 1.2 2 2.8 2 13.3.1 6.5-.3 12.4-.8 13-1.2 1.6-4.9 1.7-6.5.1-.8-.8-1.2-5.1-1.2-12.9 0-9.4.3-12.1 1.6-13.3 1.9-2 2.5-2 4.9-.2zM268.1 457c-.9 1.9-.6 9.8.3 10.7 1.1 1.1 10.6 1.1 11.3 0 .9-1.6.9-10.8-.1-11.4-.4-.3-3.1-.6-5.8-.7-3.6-.1-5.2.3-5.7 1.4z"/></svg>